<svg id="Layer_1" data-name="Layer 1" xmlns="http://www.w3.org/2000/svg" viewBox="0 0 15 15"><defs><style>.cls-1{fill:#fff;}</style></defs><title>Untitled-1</title><path class="cls-1" d="M6.38,1.88a4.51,4.51,0,0,0-4.5,4.5,0.47,0.47,0,1,0,.94,0A3.57,3.57,0,0,1,6.38,2.82,0.47,0.47,0,1,0,6.38,1.88Zm8.21,10.44L11.88,9.61a6.4,6.4,0,1,0-2.27,2.27l2.71,2.71a1.41,1.41,0,0,0,2,0l0.28-.28A1.41,1.41,0,0,0,14.59,12.32Zm-8.21-.5a5.44,5.44,0,1,1,5.44-5.44A5.45,5.45,0,0,1,6.38,11.82Zm7.54,1.82-0.28.28a0.48,0.48,0,0,1-.66,0L10.4,11.34a6.43,6.43,0,0,0,.94-0.94L13.92,13A0.47,0.47,0,0,1,13.92,13.65Z"/></svg>